<svg width="23" height="22" viewBox="0 0 23 22" fill="none" xmlns="http://www.w3.org/2000/svg">
<path d="M5.52036 10.3125H19.1308C19.3113 10.3125 19.4843 10.3849 19.612 10.5139C19.7396 10.6428 19.8113 10.8177 19.8113 11C19.8113 11.1823 19.7396 11.3572 19.612 11.4861C19.4843 11.6151 19.3113 11.6875 19.1308 11.6875H5.52036C5.33988 11.6875 5.16679 11.6151 5.03916 11.4861C4.91154 11.3572 4.83984 11.1823 4.83984 11C4.83984 10.8177 4.91154 10.6428 5.03916 10.5139C5.16679 10.3849 5.33988 10.3125 5.52036 10.3125Z" fill="black"/>
<path d="M5.8022 10.9999L11.4464 16.7006C11.5742 16.8297 11.646 17.0048 11.646 17.1874C11.646 17.37 11.5742 17.545 11.4464 17.6741C11.3186 17.8032 11.1453 17.8758 10.9646 17.8758C10.7839 17.8758 10.6106 17.8032 10.4828 17.6741L4.35813 11.4866C4.29476 11.4228 4.24448 11.3469 4.21017 11.2634C4.17586 11.1799 4.1582 11.0903 4.1582 10.9999C4.1582 10.9095 4.17586 10.8199 4.21017 10.7364C4.24448 10.6529 4.29476 10.577 4.35813 10.5131L10.4828 4.32564C10.6106 4.19655 10.7839 4.12402 10.9646 4.12402C11.1453 4.12402 11.3186 4.19655 11.4464 4.32564C11.5742 4.45474 11.646 4.62983 11.646 4.81239C11.646 4.99496 11.5742 5.17005 11.4464 5.29914L5.8022 10.9999Z" fill="black"/>
</svg>
