<svg width="36" height="36" viewBox="0 0 36 36" fill="none" xmlns="http://www.w3.org/2000/svg">
<circle cx="9.83796" cy="13.8897" r="2.79304" stroke="#4E4E4E" stroke-width="1.5"/>
<circle cx="17.8175" cy="13.8897" r="2.79304" stroke="#4E4E4E" stroke-width="1.5"/>
<circle cx="25.7969" cy="13.8897" r="2.79304" stroke="#4E4E4E" stroke-width="1.5"/>
<path d="M2.35647 22.5193C6.28494 18.0066 13.2953 18.0066 17.2238 22.5193C17.2466 22.5455 17.2523 22.5655 17.2541 22.5804C17.2563 22.5987 17.2536 22.6225 17.2424 22.6471C17.2312 22.6718 17.215 22.6894 17.1997 22.6998C17.1873 22.7081 17.1685 22.717 17.1338 22.717H2.44648C2.4118 22.717 2.39294 22.7081 2.38057 22.6998C2.36523 22.6894 2.3491 22.6718 2.33787 22.6471C2.32664 22.6225 2.32395 22.5987 2.3262 22.5804C2.32801 22.5655 2.3337 22.5455 2.35647 22.5193Z" stroke="#4E4E4E" stroke-width="1.5"/>
<path d="M18.3135 22.5193C22.242 18.0066 29.2524 18.0066 33.1808 22.5193C33.2036 22.5455 33.2093 22.5655 33.2111 22.5804C33.2134 22.5987 33.2107 22.6225 33.1994 22.6471C33.1882 22.6718 33.1721 22.6894 33.1567 22.6998C33.1444 22.7081 33.1255 22.717 33.0908 22.717H18.4035C18.3688 22.717 18.35 22.7081 18.3376 22.6998C18.3223 22.6894 18.3061 22.6718 18.2949 22.6471C18.2837 22.6225 18.281 22.5987 18.2832 22.5804C18.285 22.5655 18.2907 22.5455 18.3135 22.5193Z" stroke="#4E4E4E" stroke-width="1.5"/>
<path d="M10.336 22.5193C14.2644 18.0066 21.2748 18.0066 25.2033 22.5193C25.2261 22.5455 25.2318 22.5655 25.2336 22.5804C25.2358 22.5987 25.2331 22.6225 25.2219 22.6471C25.2107 22.6718 25.1945 22.6894 25.1792 22.6998C25.1668 22.7081 25.148 22.717 25.1133 22.717H10.426C10.3913 22.717 10.3724 22.7081 10.3601 22.6998C10.3447 22.6894 10.3286 22.6718 10.3174 22.6471C10.3061 22.6225 10.3034 22.5987 10.3057 22.5804C10.3075 22.5655 10.3132 22.5455 10.336 22.5193Z" stroke="#4E4E4E" stroke-width="1.5"/>
</svg>
