<svg width="24" height="24" viewBox="0 0 24 24" fill="none" xmlns="http://www.w3.org/2000/svg">
<g clip-path="url(#clip0_17_114)">
<path d="M3.6041 7.19738L10.7421 4.08838C10.8599 4.03789 10.9866 4.0115 11.1147 4.01076C11.2429 4.01002 11.3699 4.03494 11.4882 4.08405C11.6066 4.13317 11.7139 4.20548 11.8039 4.29674C11.8939 4.38799 11.9647 4.49633 12.0121 4.61538L16.9361 16.5174C17.0385 16.7587 17.0419 17.0306 16.9458 17.2745C16.8497 17.5184 16.6616 17.7148 16.4221 17.8214L9.2851 20.9304C9.16726 20.981 9.04047 21.0075 8.91222 21.0084C8.78396 21.0092 8.65684 20.9843 8.53836 20.9352C8.41988 20.886 8.31245 20.8137 8.2224 20.7223C8.13236 20.631 8.06153 20.5225 8.0141 20.4034L3.0901 8.50038C2.98775 8.25903 2.98427 7.98714 3.08041 7.74325C3.17654 7.49936 3.3646 7.30398 3.6041 7.19738Z" stroke="#4E4E4E" stroke-width="1.5" stroke-linecap="round" stroke-linejoin="round"/>
<path d="M15 4H16C16.2652 4 16.5196 4.10536 16.7071 4.29289C16.8946 4.48043 17 4.73478 17 5V8.5" stroke="#4E4E4E" stroke-width="1.5" stroke-linecap="round" stroke-linejoin="round"/>
<path d="M20 6C20.264 6.112 20.52 6.217 20.768 6.315C21.0121 6.41859 21.2051 6.6149 21.3045 6.86075C21.4039 7.1066 21.4015 7.38187 21.298 7.626L19 13" stroke="#4E4E4E" stroke-width="1.5" stroke-linecap="round" stroke-linejoin="round"/>
</g>
<defs>
<clipPath id="clip0_17_114">
<rect width="24" height="24" fill="white"/>
</clipPath>
</defs>
</svg>
