<svg width="24" height="24" viewBox="0 0 24 24" fill="none" xmlns="http://www.w3.org/2000/svg">
<g clip-path="url(#clip0_17_103)">
<path d="M16 14L12 12L16 10" stroke="#4E4E4E" stroke-width="1.2" stroke-linecap="round" stroke-linejoin="round"/>
<path d="M13 12H18.8667C19.4325 12 19.9751 12.2634 20.3752 12.7322C20.7752 13.2011 21 13.837 21 14.5C21 15.163 20.7752 15.7989 20.3752 16.2678C19.9751 16.7366 19.4325 17 18.8667 17H18.3333" stroke="#4E4E4E" stroke-width="1.3" stroke-linecap="round" stroke-linejoin="round"/>
<path d="M4.25641 16C4.06982 16 3.91855 15.8487 3.91855 15.6621V8.79382C3.91855 8.35541 4.27396 8 4.71238 8C5.0365 8 5.32807 8.19705 5.44894 8.49779L8.27213 15.5223C8.28268 15.5485 8.30813 15.5657 8.33643 15.5657C8.3747 15.5657 8.40573 15.5347 8.40573 15.4964V8.33786C8.40573 8.15126 8.557 8 8.74359 8C8.93018 8 9.08145 8.15126 9.08145 8.33786V15.2064C9.08145 15.6447 8.72612 16 8.2878 16C7.9636 16 7.672 15.8028 7.55126 15.5019L4.72786 8.46634C4.71732 8.44007 4.69186 8.42286 4.66355 8.42286C4.62529 8.42286 4.59427 8.45388 4.59427 8.49214V15.6621C4.59427 15.8487 4.443 16 4.25641 16ZM3.29714 12.8914C3.13304 12.8914 3 12.7584 3 12.5943C3 12.4302 3.13304 12.2971 3.29714 12.2971H9.70286C9.86696 12.2971 10 12.4302 10 12.5943C10 12.7584 9.86696 12.8914 9.70286 12.8914H3.29714ZM3.29714 11.6114C3.13304 11.6114 3 11.4784 3 11.3143C3 11.1502 3.13304 11.0171 3.29714 11.0171H9.70286C9.86696 11.0171 10 11.1502 10 11.3143C10 11.4784 9.86696 11.6114 9.70286 11.6114H3.29714Z" fill="#4E4E4E" stroke="#4E4E4E" stroke-width="0.5" stroke-linejoin="round"/>
</g>
<defs>
<clipPath id="clip0_17_103">
<rect width="24" height="24" fill="white"/>
</clipPath>
</defs>
</svg>
