<svg width="35" height="35" viewBox="0 0 35 35" fill="none" xmlns="http://www.w3.org/2000/svg">
<path d="M26.2158 12.893C26.2159 13.4546 26.4521 13.9902 26.8666 14.369L30.1808 17.398C30.6599 17.8421 30.5232 18.1844 29.8735 18.1844H28.8996C27.795 18.1844 26.8996 19.0798 26.8996 20.1844V27.6519C26.8996 28.3016 26.3527 28.8824 25.703 28.8824H22.5416C21.437 28.8824 20.5416 27.987 20.5416 26.8824V22.251C20.5416 21.6013 19.9608 21.0205 19.3111 21.0205H16.0638C15.4141 21.0205 14.8333 21.6013 14.8333 22.251V26.8824C14.8333 27.987 13.9379 28.8824 12.8333 28.8824H9.67191C9.02222 28.8824 8.44144 28.3016 8.44144 27.6519V20.1844C8.44144 19.0798 7.54601 18.1844 6.44144 18.1844H5.50144C4.85175 18.1844 4.71503 17.8421 5.19409 17.398L16.7813 6.87066C17.2603 6.4266 18.0807 6.4266 18.5925 6.87066L19.8239 7.97406C20.3647 8.45869 21.2241 8.07484 21.2241 7.34863C21.2241 6.69895 21.8049 6.11816 22.4546 6.11816H25.0183C25.668 6.11816 26.2149 6.69895 26.2149 7.34863L26.2158 12.893Z" fill="black"/>
</svg>
