<svg width="35" height="35" viewBox="0 0 35 35" fill="none" xmlns="http://www.w3.org/2000/svg">
<path d="M8.78391 24.8125C8.78391 26.043 7.82687 27 6.59641 27C5.36594 27 4.375 26.043 4.375 24.8125C4.375 23.582 5.36594 22.5911 6.59641 22.5911C7.82687 22.5911 8.78391 23.582 8.78391 24.8125ZM11.3477 24.7786C11.3477 23.797 12.1434 23.0012 13.125 23.0012H28.8477C29.8293 23.0012 30.625 23.797 30.625 24.7786C30.625 25.7602 29.8293 26.5559 28.8477 26.5559H13.125C12.1434 26.5559 11.3477 25.7602 11.3477 24.7786ZM8.78391 16.9856C8.78391 18.2161 7.82687 19.207 6.59641 19.207C5.36594 19.207 4.375 18.2161 4.375 16.9856C4.375 15.7552 5.36594 14.7981 6.59641 14.7981C7.82687 14.7981 8.78391 15.7552 8.78391 16.9856ZM11.3477 16.9856C11.3477 16.004 12.1434 15.2083 13.125 15.2083H28.8477C29.8293 15.2083 30.625 16.004 30.625 16.9856C30.625 17.9672 29.8293 18.763 28.8477 18.763H13.125C12.1434 18.763 11.3477 17.9672 11.3477 16.9856ZM8.78391 9.19266C8.78391 10.4231 7.82687 11.3802 6.59641 11.3802C5.36594 11.3802 4.375 10.4231 4.375 9.19266C4.375 7.96219 5.36594 6.97125 6.59641 6.97125C7.82687 6.97125 8.78391 7.96219 8.78391 9.19266ZM11.3477 9.20961C11.3477 8.23737 12.1358 7.44922 13.108 7.44922H28.8646C29.8368 7.44922 30.625 8.23737 30.625 9.20961C30.625 10.1818 29.8368 10.97 28.8646 10.97H13.108C12.1358 10.97 11.3477 10.1818 11.3477 9.20961Z" fill="#000"/>
</svg>
