<svg width="118" height="30" viewBox="0 0 118 30" fill="none" xmlns="http://www.w3.org/2000/svg">
<g clip-path="url(#clip0_17_275)">
<path d="M33.125 20.9834V8.97949H35.2259L38.7896 20.3314H38.9911L42.5548 8.97949H44.6557V20.9834H43.6137V9.63147H43.4122L39.8484 20.9834H37.9323L34.3685 9.63147H34.167V20.9834H33.125Z" fill="#222222"/>
<path d="M49.6318 21.223C48.8024 21.223 48.0771 21.0426 47.4548 20.6829C46.8325 20.3233 46.3512 19.8197 46.0087 19.1734C45.6662 18.5272 45.4961 17.7759 45.4961 16.9184V16.7128C45.4961 15.8553 45.6662 15.104 46.0087 14.4578C46.3501 13.8115 46.8325 13.3091 47.4548 12.9483C48.0771 12.5886 48.8024 12.4082 49.6318 12.4082C50.4612 12.4082 51.1865 12.5886 51.8088 12.9483C52.4311 13.308 52.9124 13.8115 53.2537 14.4578C53.5951 15.104 53.7664 15.8553 53.7664 16.7128V16.9184C53.7664 17.7759 53.5951 18.5272 53.2537 19.1734C52.9124 19.8197 52.43 20.3221 51.8088 20.6829C51.1865 21.0426 50.4612 21.223 49.6318 21.223ZM49.6318 20.297C50.5955 20.297 51.3577 19.9853 51.9185 19.3618C52.4781 18.7384 52.759 17.9129 52.759 16.8841V16.7471C52.759 15.7183 52.4792 14.8928 51.9185 14.2694C51.3577 13.6459 50.5955 13.3354 49.6318 13.3354C48.6681 13.3354 47.9204 13.6471 47.3541 14.2694C46.7877 14.8928 46.5057 15.7183 46.5057 16.7471V16.8841C46.5057 17.9129 46.7888 18.7396 47.3541 19.3618C47.9193 19.9853 48.6793 20.297 49.6318 20.297Z" fill="#222222"/>
<path d="M54.6416 20.9829V12.6488H55.6165V14.1925H55.818C56.0194 13.7472 56.3496 13.3499 56.8096 13.0005C57.2685 12.6522 57.9356 12.4775 58.8098 12.4775C59.4041 12.4775 59.9469 12.6031 60.4405 12.8543C60.9341 13.1055 61.3292 13.4858 61.6258 13.995C61.9224 14.5043 62.0713 15.1414 62.0713 15.9075V20.9829H61.0628V15.9761C61.0628 15.0615 60.8379 14.4038 60.3902 14.0041C59.9413 13.6045 59.3425 13.4035 58.5915 13.4035C57.7509 13.4035 57.0503 13.6867 56.4906 14.2519C55.9299 14.8183 55.6501 15.6723 55.6501 16.8153V20.9818H54.6416V20.9829Z" fill="#222222"/>
<path d="M63.7531 11.2093C63.5057 11.2093 63.2986 11.1237 63.1307 10.9524C62.9629 10.7811 62.8789 10.5699 62.8789 10.3175C62.8789 10.0652 62.9629 9.84026 63.1307 9.6747C63.2986 9.50913 63.5057 9.42578 63.7531 9.42578C64.0004 9.42578 64.2209 9.50913 64.3832 9.6747C64.5455 9.84026 64.6272 10.0549 64.6272 10.3175C64.6272 10.5802 64.5455 10.78 64.3832 10.9524C64.2209 11.1237 64.0105 11.2093 63.7531 11.2093ZM63.2483 20.9832V12.6491H64.2567V20.9832H63.2483Z" fill="#222222"/>
<path d="M69.3001 21.2228C68.4596 21.2228 67.7287 21.0424 67.1064 20.6828C66.4841 20.3231 65.9994 19.8173 65.6524 19.1653C65.3055 18.5133 65.1309 17.7654 65.1309 16.9193V16.7138C65.1309 15.8563 65.3043 15.105 65.6524 14.4587C65.9994 13.8125 66.4785 13.3101 67.0896 12.9493C67.6996 12.5896 68.398 12.4092 69.1826 12.4092C69.9672 12.4092 70.6198 12.5725 71.2085 12.8979C71.7961 13.2233 72.2595 13.6926 72.5953 14.3034C72.931 14.9155 73.1 15.6439 73.1 16.49V17.0392H66.1404C66.174 18.0794 66.4852 18.8821 67.0728 19.4485C67.6615 20.0148 68.4036 20.2968 69.3001 20.2968C70.0624 20.2968 70.6533 20.1198 71.0731 19.7647C71.4939 19.4108 71.8151 18.9757 72.0401 18.4619L72.9478 18.873C72.7799 19.2498 72.5471 19.6186 72.2505 19.9794C71.9528 20.3391 71.57 20.6371 71.0988 20.8712C70.6287 21.1052 70.0288 21.2228 69.3001 21.2228ZM66.1561 16.1475H72.0737C72.0289 15.2443 71.7435 14.5501 71.2163 14.0637C70.6891 13.5784 70.012 13.3352 69.1826 13.3352C68.3532 13.3352 67.6861 13.5784 67.1489 14.0637C66.6116 14.5501 66.2803 15.2443 66.1572 16.1475H66.1561Z" fill="#222222"/>
<path d="M74.9897 20.983V10.8654H71.501V8.77246H80.7349V10.8654H77.2462V20.983H74.9886H74.9897Z" fill="#222222"/>
<path d="M79.8115 20.9828V12.3313H81.9314V13.3087H82.2392C82.3646 12.9593 82.5728 12.4945 82.8638 12.3313C83.1548 12.168 83.4939 12.0869 83.8812 12.0869H84.9075V13.9092L83.8107 13.972C83.2633 13.972 82.8503 14.3979 82.4966 14.6948C82.143 14.9917 81.9661 15.4484 81.9661 16.0638V20.9828H79.8115Z" fill="#222222"/>
<path d="M91.6453 19.1686C91.3263 19.1686 91.1673 18.9939 91.1673 18.6457V15.4189C91.1673 14.3387 90.8416 13.5121 90.1925 12.9423C89.5433 12.3714 88.6591 12.0859 87.542 12.0859C87.4782 12.0859 85.8329 12.0871 85.7714 12.0905V13.8706C85.8217 13.8672 87.4559 13.866 87.5096 13.866C88.0558 13.866 88.4542 13.9973 88.705 14.2588C88.9557 14.5203 89.0821 14.8548 89.0821 15.2613V15.7512H86.7563C86.1183 15.7512 85.5509 15.8516 85.055 16.056C84.5592 16.2604 84.1708 16.5618 83.8932 16.9638C83.6134 17.3645 83.4746 17.8612 83.4746 18.455C83.4746 19.0487 83.6134 19.55 83.8932 19.9633C84.1719 20.3778 84.5513 20.6906 85.0293 20.9053C85.5094 21.1211 86.0489 21.2296 86.6533 21.2296C87.2577 21.2296 87.7144 21.1428 88.0558 20.9681C88.3983 20.7934 88.649 20.5924 88.8079 20.3664C88.9669 20.1391 89.0698 19.9553 89.1168 19.816H89.4414V19.8343C89.4414 20.1837 89.578 20.4611 89.8511 20.6712C90.1253 20.8813 90.4723 20.9841 90.8942 20.9841H92.3303V19.1697H91.6464L91.6453 19.1686ZM89.0799 17.5644C89.0799 18.133 88.8885 18.5908 88.508 18.9334C88.1252 19.2759 87.6327 19.4483 87.0283 19.4483C86.5716 19.4483 86.2258 19.349 85.9851 19.1515C85.7456 18.9551 85.6258 18.6993 85.6258 18.3842C85.6258 18.069 85.74 17.827 85.9683 17.6523C86.1978 17.4776 86.5101 17.3908 86.9108 17.3908H89.081V17.5655L89.0799 17.5644Z" fill="#222222"/>
<path d="M96.5741 21.227C95.7537 21.227 95.0093 21.0523 94.3423 20.704C93.6752 20.3546 93.148 19.8488 92.7607 19.1865C92.3735 18.5231 92.1787 17.7216 92.1787 16.7796V16.5353C92.1787 15.5933 92.3723 14.7906 92.7607 14.1283C93.148 13.4649 93.6752 12.9591 94.3423 12.6108C95.0093 12.2614 95.7525 12.0879 96.5741 12.0879C97.3956 12.0879 98.0784 12.234 98.6604 12.5241C99.2413 12.8152 99.7125 13.2126 100.071 13.7195C100.43 14.2254 100.666 14.7986 100.78 15.438L98.694 15.8913C98.6481 15.5419 98.5451 15.2279 98.3862 14.9493C98.2261 14.6707 98.0011 14.4492 97.7113 14.2859C97.4202 14.1237 97.0587 14.0415 96.6256 14.0415C96.1924 14.0415 95.8018 14.1374 95.4537 14.3293C95.1056 14.5211 94.8325 14.8065 94.6333 15.1845C94.434 15.5624 94.3344 16.0249 94.3344 16.5718V16.7465C94.3344 17.2934 94.434 17.7559 94.6333 18.1338C94.8325 18.5117 95.1056 18.7972 95.4537 18.989C95.8018 19.1808 96.1913 19.2767 96.6256 19.2767C97.2747 19.2767 97.7683 19.1055 98.1052 18.7618C98.441 18.4192 98.6548 17.9682 98.7466 17.4099L100.833 17.9157C100.684 18.5323 100.431 19.0929 100.072 19.5987C99.7125 20.1046 99.2424 20.5031 98.6615 20.7942C98.0795 21.0854 97.3844 21.2304 96.5752 21.2304L96.5741 21.227Z" fill="#222222"/>
<path d="M101.584 20.983V8.77246H103.739V15.5229H104.046L106.85 12.3304H109.655L105.739 16.5174L109.792 20.983H107.021L104.046 17.5462H103.739V20.983H101.584Z" fill="#222222"/>
<path d="M112.322 21.2273C111.718 21.2273 111.177 21.12 110.698 20.9042C110.219 20.6895 109.841 20.3755 109.561 19.9622C109.281 19.55 109.143 19.0464 109.143 18.4527C109.143 17.8589 109.282 17.3623 109.561 16.9615C109.84 16.5607 110.228 16.2581 110.724 16.0549C111.22 15.8516 111.787 15.75 112.425 15.75H114.751V15.2613C114.751 14.8548 114.626 14.5203 114.375 14.2588C114.124 13.9973 113.726 13.866 113.179 13.866C112.631 13.866 112.244 13.9916 111.982 14.2405C111.72 14.4906 111.549 14.8137 111.47 15.2088L109.486 14.5283C109.623 14.0864 109.842 13.6822 110.144 13.3157C110.447 12.9491 110.851 12.6523 111.359 12.4262C111.866 12.199 112.485 12.0859 113.214 12.0859C114.332 12.0859 115.215 12.3714 115.865 12.9412C116.514 13.5109 116.84 14.3365 116.84 15.4177V18.6445C116.84 18.9928 116.999 19.1675 117.319 19.1675H118.003V20.9818H116.567C116.145 20.9818 115.797 20.8768 115.524 20.6678C115.25 20.4589 115.113 20.1791 115.113 19.8309V19.8137H114.788C114.742 19.953 114.639 20.1369 114.48 20.3629C114.32 20.5902 114.07 20.79 113.728 20.9647C113.386 21.1394 112.919 21.2262 112.326 21.2262L112.322 21.2273ZM112.698 19.4483C113.303 19.4483 113.795 19.2771 114.178 18.9334C114.56 18.5908 114.751 18.1341 114.751 17.5644V17.3897H112.58C112.18 17.3897 111.867 17.4764 111.64 17.6511C111.411 17.8258 111.297 18.0702 111.297 18.3842C111.297 18.6982 111.417 18.9539 111.656 19.1515C111.896 19.349 112.243 19.4483 112.7 19.4483H112.698Z" fill="#222222"/>
<path d="M28.9512 14.9998C28.9512 17.3668 28.6378 19.736 28.0099 22.0391C26.7261 26.7445 22.5254 30.0009 17.7383 30.0009H11.2152C8.82112 30.0009 6.57475 29.1868 4.76601 27.7858C3.75307 27.0003 2.87668 26.0309 2.18945 24.9153C4.63282 22.1624 7.98055 18.3921 9.52962 16.6474C9.96053 18.0313 10.4441 19.583 10.8022 20.7317C10.9365 21.1622 11.4861 21.2672 11.7637 20.9155C13.1493 19.1594 15.999 15.549 18.0014 13.0119C18.3327 14.615 18.702 16.3997 18.9404 17.5517C19.0221 17.9491 19.4766 18.1318 19.8023 17.8977L21.0267 17.0208C21.1264 16.9329 24.8826 14.2542 28.7228 11.5127C28.8762 12.6705 28.9512 13.8351 28.9512 15.0009V14.9998Z" fill="#FDB73E"/>
<path d="M27.4467 6.37931C26.7057 4.71341 25.5753 3.29071 24.1874 2.21626C22.3787 0.814113 20.1312 0 17.7382 0H11.2151C6.42908 0 2.22846 3.25303 0.943543 7.95615C0.314515 10.2603 0 12.6307 0 15C0 17.3693 0.314515 19.7385 0.943543 22.0427C1.04428 22.4115 1.16292 22.77 1.29723 23.1206C4.35955 18.9815 8.7482 13.0464 10.2424 11.0265C10.4405 10.7582 10.8524 10.8312 10.952 11.1509L11.5911 13.1982L12.2773 15.3996C14.4027 12.705 17.6206 8.62754 19.0891 6.76753C19.304 6.49578 19.7305 6.60082 19.801 6.94222C20.1278 8.52135 20.636 10.982 21.0501 12.9858L27.7478 7.13177L28.9633 6.08929L27.4456 6.37931H27.4467Z" fill="#4A4A4A"/>
</g>
<defs>
<clipPath id="clip0_17_275">
<rect width="118" height="30" fill="white"/>
</clipPath>
</defs>
</svg>
