<svg width="22" height="28" viewBox="0 0 22 28" fill="none" xmlns="http://www.w3.org/2000/svg">
<rect width="22" height="28" rx="1" fill="#000"/>
<path d="M3 23H18.54" stroke="white" stroke-width="0.5" stroke-linecap="round"/>
<path d="M7.65528 18.4691V14.4871H10.4061L12.0703 18.4457C12.2497 18.8724 12.6675 19.15 13.1304 19.15H13.5566C14.1917 19.15 14.7066 18.6351 14.7066 18V14.4871H15.5543C15.8833 14.4871 16.15 14.2204 16.15 13.8914C16.15 13.5624 15.8833 13.2957 15.5543 13.2957H14.7066V12.5671H15.5543C15.8833 12.5671 16.15 12.3004 16.15 11.9714C16.15 11.6424 15.8833 11.3757 15.5543 11.3757H14.7066V7.53092C14.7066 7.15486 14.4017 6.85 14.0256 6.85C13.6496 6.85 13.3447 7.15486 13.3447 7.53092V11.3757H10.5391L8.92984 7.55374C8.75029 7.1273 8.33265 6.85 7.86996 6.85H7.44344C6.80831 6.85 6.29344 7.36487 6.29344 8V11.3757H5.44571C5.11671 11.3757 4.85 11.6424 4.85 11.9714C4.85 12.3004 5.11671 12.5671 5.44571 12.5671H6.29344V13.2957H5.44571C5.11671 13.2957 4.85 13.5624 4.85 13.8914C4.85 14.2204 5.11671 14.4871 5.44571 14.4871H6.29344V18.4691C6.29344 18.8451 6.5983 19.15 6.97436 19.15C7.35042 19.15 7.65528 18.8451 7.65528 18.4691ZM9.9052 13.2957H7.65528V12.5671H9.5989L9.9052 13.2957ZM13.3447 18.0392L11.8491 14.4871H13.3447V18.0392ZM13.3447 12.5671V13.2957H11.3475L11.0407 12.5671H13.3447ZM7.65528 7.94401L9.09801 11.3757H7.65528V7.94401Z" fill="white" stroke="white" stroke-width="0.3"/>
</svg>
