<svg width="28" height="28" viewBox="0 0 28 28" fill="none" xmlns="http://www.w3.org/2000/svg">
<path d="M25.375 12.2496H23.45C23.275 11.1121 22.925 10.0621 22.3125 9.01212C21.7 7.87462 21.875 6.38712 22.8375 5.42462C23.0125 5.24962 23.1 5.07462 23.1 4.81212C23.1 4.54962 23.1 4.37462 22.925 4.19962C21.175 2.44962 18.375 2.44962 16.5375 4.11212C15.4875 3.67462 14.2625 3.49962 13.125 3.49962C9.7125 3.49962 6.5625 5.16212 4.55 7.87462C3.2375 9.62462 2.625 11.8121 2.625 13.9996C2.625 15.9246 3.15 17.7621 4.1125 19.3371L4.2 19.5121C4.1125 19.5996 4.025 19.5996 3.9375 19.5996C3.675 19.6871 3.5 19.5121 3.5 19.2496C3.5 18.7246 3.15 18.3746 2.625 18.3746C2.1 18.3746 1.75 18.7246 1.75 19.2496C1.75 20.4746 2.7125 21.4371 3.9375 21.4371C4.375 21.4371 4.8125 21.2621 5.1625 21.0871L8.05 25.8121C8.1375 26.0746 8.4 26.2496 8.75 26.2496H12.25C12.5125 26.2496 12.775 26.1621 12.95 25.8996C13.125 25.7246 13.2125 25.4621 13.125 25.1996L12.95 24.4996C13.3 24.4996 13.7375 24.4996 14.0875 24.4996L14 25.1996C14 25.4621 14 25.7246 14.175 25.8996C14.35 26.0746 14.6125 26.2496 14.875 26.2496H18.375C18.6375 26.2496 18.9875 26.0746 19.075 25.8121L20.825 23.0996C22.925 22.3121 24.7625 21.1746 25.9875 19.8621C26.1625 19.6871 26.25 19.5121 26.25 19.2496V13.1246C26.25 12.5996 25.9 12.2496 25.375 12.2496ZM16.3625 14.6121L13.7375 17.2371C13.65 17.3246 13.5625 17.4121 13.475 17.4121C13.3875 17.4996 13.2125 17.4996 13.125 17.4996C13.0375 17.4996 12.8625 17.4996 12.775 17.4121C12.6875 17.3246 12.6 17.3246 12.5125 17.2371L9.8875 14.6121C9.5375 14.2621 9.5375 13.7371 9.8875 13.3871C10.2375 13.0371 10.7625 13.0371 11.1125 13.3871L12.25 14.5246V9.62462C12.25 9.09962 12.6 8.74962 13.125 8.74962C13.65 8.74962 14 9.09962 14 9.62462V14.5246L15.1375 13.3871C15.4875 13.0371 16.0125 13.0371 16.3625 13.3871C16.7125 13.7371 16.7125 14.2621 16.3625 14.6121Z" fill="#000"/>
</svg>
