<svg width="31" height="31" viewBox="0 0 31 31" fill="none" xmlns="http://www.w3.org/2000/svg">
<path fill-rule="evenodd" clip-rule="evenodd" d="M21.3128 9.12272C21.3128 13.2496 18.8199 16.7913 15.5003 16.7913C12.1781 16.7913 9.68778 13.2496 9.68778 9.12142C9.68778 4.99584 11.8319 2.58301 15.5003 2.58301C19.1686 2.58301 21.3128 4.99455 21.3128 9.12272ZM5.2987 26.0164C5.79599 26.608 7.93757 28.4163 15.5003 28.4163C23.063 28.4163 25.2033 26.608 25.7019 26.0177C25.7481 25.961 25.7823 25.8954 25.8023 25.825C25.8223 25.7546 25.8276 25.6808 25.8181 25.6083C25.7044 24.469 24.6789 19.3747 15.5003 19.3747C6.3217 19.3747 5.29611 24.469 5.18116 25.6083C5.1718 25.6809 5.1774 25.7547 5.19762 25.8251C5.21783 25.8955 5.25223 25.9598 5.2987 26.0164Z" fill="#000"/>
</svg>
